<?xml version="1.0" encoding="utf-8"?>
<!-- Generator: Adobe Illustrator 17.0.2, SVG Export Plug-In . SVG Version: 6.00 Build 0)  -->
<!DOCTYPE svg PUBLIC "-//W3C//DTD SVG 1.1//EN" "http://www.w3.org/Graphics/SVG/1.1/DTD/svg11.dtd">
<svg version="1.1" id="Livello_1" xmlns="http://www.w3.org/2000/svg" xmlns:xlink="http://www.w3.org/1999/xlink" x="0px" y="0px"
	 width="320px" height="80px" viewBox="0 0 320 80" enable-background="new 0 0 320 80" xml:space="preserve">
<g>
	<g>
		<defs>
			<rect id="SVGID_1_" x="29.398" y="-3.534" width="261.204" height="87.068"/>
		</defs>
		<clipPath id="SVGID_2_">
			<use xlink:href="#SVGID_1_"  overflow="visible"/>
		</clipPath>
		<g clip-path="url(#SVGID_2_)">
			<defs>
				<rect id="SVGID_3_" x="29.398" y="-3.534" width="261.204" height="87.068"/>
			</defs>
			<clipPath id="SVGID_4_">
				<use xlink:href="#SVGID_3_"  overflow="visible"/>
			</clipPath>
			<path clip-path="url(#SVGID_4_)" fill="#333333" d="M128.454,37.947l-2.861,22.381h-4.057l2.898-23.063
				c0.265-2.078,0.519-3.456,0.76-4.132c0.531-1.379,1.401-2.104,2.608-2.176c1.11-0.025,2.04,0.495,2.789,1.559
				c0.507,0.726,1.002,1.875,1.485,3.446l5.323,17.412l5.686-18.18c0.508-1.642,0.846-2.609,1.014-2.898
				c0.555-0.894,1.412-1.34,2.572-1.34c1.062,0,1.87,0.446,2.426,1.34c0.435,0.7,0.748,1.751,0.941,3.15
				c0.145,1.183,0.277,2.379,0.399,3.586l2.68,21.295h-3.983l-3.006-22.491l-6.048,19.846c-0.338,1.136-0.7,1.92-1.086,2.354
				c-0.433,0.508-1.038,0.773-1.81,0.797c-0.773,0.024-1.327-0.302-1.666-0.977c-0.072-0.12-0.313-0.81-0.724-2.065L128.454,37.947z
				"/>
			<path clip-path="url(#SVGID_4_)" fill="#333333" d="M171.151,60.799c-4.129,0-7.69-1.437-10.683-4.31
				c-2.994-2.872-4.515-6.338-4.563-10.394c-0.048-4.177,1.431-7.744,4.436-10.702c3.006-2.958,6.61-4.436,10.811-4.436
				c4.104,0,7.672,1.497,10.702,4.49c3.03,2.994,4.545,6.506,4.545,10.538c0,4.081-1.503,7.569-4.509,10.467
				C178.883,59.351,175.304,60.799,171.151,60.799 M160.251,45.914c0,2.995,1.05,5.572,3.15,7.733
				c2.101,2.161,4.635,3.254,7.605,3.277c2.97,0.048,5.522-0.99,7.659-3.114c2.137-2.125,3.241-4.684,3.315-7.679
				c0.047-3.091-0.996-5.74-3.133-7.949c-2.136-2.209-4.786-3.315-7.949-3.315c-2.946,0-5.457,1.093-7.533,3.279
				C161.287,40.332,160.251,42.921,160.251,45.914"/>
			<polygon clip-path="url(#SVGID_4_)" fill="#333333" points="193.496,31.356 193.496,43.416 205.882,43.416 205.882,31.465 
				210.046,31.465 210.046,60.292 205.81,60.292 205.81,47.328 193.46,47.328 193.46,60.292 189.295,60.292 189.295,31.356 			"/>
			<path clip-path="url(#SVGID_4_)" fill="#333333" d="M228.517,60.799c-4.129,0-7.69-1.437-10.683-4.31
				c-2.994-2.872-4.515-6.338-4.563-10.394c-0.048-4.177,1.431-7.744,4.436-10.702c3.006-2.958,6.61-4.436,10.811-4.436
				c4.104,0,7.672,1.497,10.702,4.49c3.03,2.994,4.545,6.506,4.545,10.538c0,4.081-1.503,7.569-4.509,10.467
				S232.669,60.799,228.517,60.799 M217.616,45.914c0,2.995,1.05,5.572,3.15,7.733c2.101,2.161,4.636,3.254,7.605,3.277
				c2.97,0.048,5.524-0.99,7.66-3.114c2.136-2.125,3.24-4.684,3.313-7.679c0.047-3.091-0.996-5.74-3.132-7.949
				c-2.137-2.209-4.787-3.315-7.95-3.315c-2.946,0-5.457,1.093-7.533,3.279C218.653,40.332,217.616,42.921,217.616,45.914"/>
			<path clip-path="url(#SVGID_4_)" fill="#333333" d="M246.732,50.079v-18.65h4.274v18.868c0,2.293,0.616,3.972,1.848,5.034
				c0.602,0.508,1.303,0.846,2.1,1.014c0.483,0.097,1.304,0.144,2.462,0.144h5.288v3.84h-6.773c-2.076,0-3.899-0.567-5.468-1.702
				c-1.401-1.014-2.39-2.257-2.969-3.731C246.987,53.641,246.732,52.035,246.732,50.079"/>
			<path clip-path="url(#SVGID_4_)" fill="#333333" d="M278.71,56.345h4.491v3.947h-3.187c-4.467,0-8.112-1.377-10.937-4.129
				c-2.753-2.68-4.141-6.084-4.165-10.213c-0.05-3.983,1.376-7.4,4.273-10.249c2.897-2.848,6.338-4.274,10.322-4.274h3.585v3.947
				h-1.956c-3.96,0-6.953,1.014-8.981,3.042c-1.401,1.425-2.306,2.958-2.717,4.599l-0.144,0.544h13.943v3.911h-14.124
				c0.289,2.439,1.304,4.49,3.042,6.156c0.941,0.869,2.076,1.558,3.405,2.065C276.719,56.128,277.769,56.345,278.71,56.345"/>
			<rect x="120.994" y="65.41" clip-path="url(#SVGID_4_)" fill="#999999" width="1.34" height="11.254"/>
			<path clip-path="url(#SVGID_4_)" fill="#999999" d="M130.83,76.837c-0.347,0-0.623-0.097-0.828-0.292
				c-0.205-0.194-0.307-0.511-0.307-0.954c-0.368,0.442-0.796,0.76-1.285,0.954c-0.489,0.195-1.017,0.292-1.584,0.292
				c-0.368,0-0.715-0.039-1.04-0.118c-0.327-0.079-0.612-0.211-0.859-0.394c-0.247-0.184-0.441-0.42-0.583-0.708
				c-0.142-0.289-0.213-0.64-0.213-1.049c0-0.462,0.079-0.84,0.236-1.135c0.158-0.294,0.365-0.534,0.623-0.717
				s0.552-0.323,0.883-0.418c0.331-0.095,0.67-0.173,1.017-0.236c0.368-0.073,0.717-0.128,1.048-0.166
				c0.331-0.036,0.623-0.089,0.875-0.158c0.252-0.068,0.451-0.168,0.599-0.299s0.221-0.323,0.221-0.575
				c0-0.294-0.055-0.53-0.166-0.709c-0.11-0.178-0.252-0.314-0.426-0.41c-0.173-0.095-0.368-0.158-0.583-0.189
				c-0.215-0.032-0.428-0.047-0.638-0.047c-0.567,0-1.04,0.108-1.419,0.323s-0.583,0.623-0.615,1.222h-1.34
				c0.021-0.504,0.126-0.929,0.315-1.277c0.189-0.347,0.441-0.628,0.757-0.843s0.678-0.37,1.088-0.465
				c0.41-0.095,0.841-0.142,1.293-0.142c0.368,0,0.733,0.026,1.095,0.079c0.363,0.053,0.69,0.161,0.985,0.323
				c0.294,0.163,0.53,0.392,0.709,0.686s0.268,0.678,0.268,1.151v4.193c0,0.315,0.018,0.546,0.055,0.694
				c0.036,0.147,0.16,0.221,0.37,0.221c0.115,0,0.252-0.026,0.41-0.079v1.04C131.559,76.768,131.239,76.837,130.83,76.837
				 M128.954,72.731c-0.274,0.059-0.56,0.106-0.859,0.142c-0.299,0.037-0.601,0.079-0.906,0.126s-0.578,0.124-0.82,0.229
				s-0.439,0.256-0.591,0.449c-0.152,0.195-0.229,0.46-0.229,0.796c0,0.221,0.045,0.408,0.134,0.56
				c0.089,0.153,0.205,0.276,0.347,0.37c0.142,0.095,0.31,0.163,0.504,0.205c0.194,0.043,0.392,0.063,0.591,0.063
				c0.441,0,0.82-0.06,1.135-0.181c0.315-0.12,0.573-0.272,0.772-0.457c0.199-0.184,0.347-0.384,0.441-0.599
				s0.142-0.417,0.142-0.606v-1.372C129.448,72.581,129.228,72.673,128.954,72.731"/>
			<path clip-path="url(#SVGID_4_)" fill="#999999" d="M134.581,65.409v4.209h0.032c0.221-0.451,0.567-0.78,1.04-0.985
				c0.473-0.205,0.993-0.307,1.56-0.307c0.63,0,1.18,0.116,1.647,0.347s0.857,0.544,1.166,0.938s0.545,0.849,0.701,1.363
				c0.158,0.515,0.236,1.062,0.236,1.639c0,0.578-0.077,1.124-0.229,1.639c-0.152,0.515-0.383,0.965-0.694,1.348
				c-0.31,0.383-0.698,0.686-1.166,0.906c-0.467,0.221-1.011,0.331-1.631,0.331c-0.199,0-0.423-0.021-0.67-0.063
				c-0.247-0.043-0.491-0.11-0.733-0.205c-0.242-0.095-0.471-0.223-0.686-0.386c-0.215-0.162-0.396-0.365-0.544-0.607h-0.032v1.088
				h-1.34V65.409H134.581z M139.396,71.407c-0.099-0.363-0.252-0.686-0.457-0.969c-0.205-0.284-0.467-0.51-0.788-0.678
				c-0.321-0.168-0.696-0.252-1.127-0.252c-0.451,0-0.835,0.09-1.151,0.268c-0.315,0.179-0.573,0.412-0.772,0.701
				c-0.199,0.289-0.345,0.618-0.433,0.985c-0.089,0.368-0.134,0.741-0.134,1.119c0,0.399,0.047,0.786,0.142,1.159
				s0.244,0.701,0.449,0.985s0.471,0.512,0.796,0.686c0.327,0.173,0.719,0.26,1.182,0.26c0.463,0,0.849-0.089,1.159-0.268
				c0.311-0.178,0.56-0.414,0.749-0.709c0.189-0.294,0.325-0.63,0.41-1.01c0.084-0.378,0.126-0.766,0.126-1.165
				C139.546,72.14,139.497,71.77,139.396,71.407"/>
			<path clip-path="url(#SVGID_4_)" fill="#999999" d="M142.51,70.919c0.168-0.521,0.42-0.972,0.757-1.356
				c0.337-0.384,0.751-0.687,1.245-0.907c0.494-0.22,1.062-0.331,1.702-0.331c0.652,0,1.222,0.111,1.71,0.331
				c0.489,0.221,0.901,0.524,1.237,0.907s0.589,0.834,0.757,1.356c0.168,0.52,0.252,1.08,0.252,1.678
				c0,0.599-0.084,1.156-0.252,1.671c-0.168,0.516-0.42,0.965-0.757,1.349c-0.337,0.384-0.749,0.682-1.237,0.898
				c-0.489,0.215-1.058,0.323-1.71,0.323c-0.641,0-1.208-0.108-1.702-0.323c-0.494-0.216-0.909-0.515-1.245-0.898
				c-0.337-0.384-0.589-0.833-0.757-1.349c-0.168-0.515-0.252-1.072-0.252-1.671C142.257,71.999,142.342,71.439,142.51,70.919
				 M143.873,73.913c0.132,0.384,0.313,0.705,0.544,0.963c0.231,0.257,0.502,0.454,0.812,0.59c0.31,0.137,0.638,0.206,0.985,0.206
				c0.347,0,0.676-0.069,0.985-0.206c0.31-0.136,0.581-0.333,0.812-0.59c0.231-0.258,0.412-0.579,0.544-0.963
				c0.131-0.383,0.197-0.821,0.197-1.316c0-0.493-0.066-0.932-0.197-1.316c-0.132-0.384-0.313-0.706-0.544-0.968
				c-0.231-0.263-0.502-0.463-0.812-0.599c-0.31-0.137-0.638-0.206-0.985-0.206c-0.347,0-0.676,0.069-0.985,0.206
				c-0.31,0.136-0.581,0.336-0.812,0.599c-0.231,0.262-0.412,0.584-0.544,0.968c-0.132,0.384-0.197,0.823-0.197,1.316
				C143.676,73.092,143.741,73.53,143.873,73.913"/>
			<path clip-path="url(#SVGID_4_)" fill="#999999" d="M153.117,68.514v1.718h0.032c0.325-0.662,0.725-1.151,1.198-1.465
				c0.473-0.316,1.072-0.464,1.797-0.442v1.419c-0.536,0-0.993,0.073-1.371,0.221c-0.378,0.147-0.683,0.363-0.914,0.646
				c-0.231,0.284-0.4,0.628-0.504,1.032c-0.105,0.405-0.158,0.87-0.158,1.395v3.625h-1.34v-8.149H153.117z"/>
			<path clip-path="url(#SVGID_4_)" fill="#999999" d="M163.568,76.837c-0.347,0-0.623-0.097-0.828-0.292
				c-0.205-0.194-0.307-0.511-0.307-0.954c-0.368,0.442-0.796,0.76-1.285,0.954c-0.489,0.195-1.017,0.292-1.584,0.292
				c-0.368,0-0.715-0.039-1.04-0.118c-0.327-0.079-0.612-0.211-0.859-0.394c-0.247-0.184-0.441-0.42-0.583-0.708
				c-0.142-0.289-0.213-0.64-0.213-1.049c0-0.462,0.079-0.84,0.236-1.135c0.158-0.294,0.365-0.534,0.623-0.717
				s0.552-0.323,0.883-0.418s0.67-0.173,1.017-0.236c0.368-0.073,0.717-0.128,1.048-0.166c0.331-0.036,0.623-0.089,0.875-0.158
				c0.252-0.068,0.451-0.168,0.599-0.299c0.147-0.132,0.221-0.323,0.221-0.575c0-0.294-0.055-0.53-0.166-0.709
				c-0.11-0.178-0.252-0.314-0.426-0.41c-0.173-0.095-0.368-0.158-0.583-0.189s-0.428-0.047-0.638-0.047
				c-0.567,0-1.04,0.108-1.419,0.323c-0.378,0.215-0.583,0.623-0.615,1.222h-1.34c0.021-0.504,0.126-0.929,0.315-1.277
				c0.189-0.347,0.441-0.628,0.757-0.843s0.678-0.37,1.088-0.465c0.41-0.095,0.841-0.142,1.293-0.142
				c0.368,0,0.733,0.026,1.095,0.079s0.69,0.161,0.985,0.323c0.294,0.163,0.53,0.392,0.709,0.686
				c0.179,0.294,0.268,0.678,0.268,1.151v4.193c0,0.315,0.018,0.546,0.055,0.694c0.036,0.147,0.16,0.221,0.37,0.221
				c0.115,0,0.252-0.026,0.41-0.079v1.04C164.297,76.768,163.977,76.837,163.568,76.837 M161.692,72.731
				c-0.274,0.059-0.56,0.106-0.859,0.142c-0.299,0.037-0.601,0.079-0.906,0.126c-0.305,0.047-0.578,0.124-0.82,0.229
				c-0.242,0.105-0.439,0.256-0.591,0.449c-0.152,0.195-0.229,0.46-0.229,0.796c0,0.221,0.045,0.408,0.134,0.56
				c0.089,0.153,0.205,0.276,0.347,0.37s0.31,0.163,0.504,0.205c0.194,0.043,0.392,0.063,0.591,0.063c0.441,0,0.82-0.06,1.135-0.181
				c0.315-0.12,0.573-0.272,0.772-0.457c0.199-0.184,0.347-0.384,0.441-0.599s0.142-0.417,0.142-0.606v-1.372
				C162.185,72.581,161.965,72.673,161.692,72.731"/>
			<path clip-path="url(#SVGID_4_)" fill="#999999" d="M169.415,68.514v1.182h-1.624v5.06c0,0.158,0.012,0.284,0.039,0.378
				c0.026,0.095,0.075,0.168,0.15,0.221c0.073,0.053,0.176,0.087,0.307,0.102c0.131,0.017,0.302,0.024,0.512,0.024h0.615v1.182
				h-1.025c-0.347,0-0.644-0.024-0.891-0.071s-0.447-0.133-0.599-0.26c-0.153-0.126-0.266-0.304-0.339-0.535
				c-0.074-0.232-0.11-0.537-0.11-0.915v-5.186h-1.387v-1.182h1.387v-2.443h1.34v2.443H169.415z"/>
			<path clip-path="url(#SVGID_4_)" fill="#999999" d="M170.865,70.919c0.168-0.521,0.42-0.972,0.757-1.356
				c0.337-0.384,0.751-0.687,1.245-0.907c0.494-0.22,1.062-0.331,1.702-0.331c0.652,0,1.222,0.111,1.71,0.331
				c0.489,0.221,0.901,0.524,1.237,0.907c0.337,0.384,0.589,0.834,0.757,1.356c0.168,0.52,0.252,1.08,0.252,1.678
				c0,0.599-0.084,1.156-0.252,1.671c-0.168,0.516-0.42,0.965-0.757,1.349c-0.337,0.384-0.749,0.682-1.237,0.898
				c-0.489,0.215-1.058,0.323-1.71,0.323c-0.641,0-1.208-0.108-1.702-0.323c-0.494-0.216-0.909-0.515-1.245-0.898
				c-0.337-0.384-0.589-0.833-0.757-1.349c-0.168-0.515-0.252-1.072-0.252-1.671C170.613,71.999,170.697,71.439,170.865,70.919
				 M172.228,73.913c0.132,0.384,0.313,0.705,0.544,0.963c0.231,0.257,0.502,0.454,0.812,0.59c0.31,0.137,0.638,0.206,0.985,0.206
				s0.676-0.069,0.985-0.206c0.31-0.136,0.581-0.333,0.812-0.59c0.231-0.258,0.412-0.579,0.544-0.963
				c0.131-0.383,0.197-0.821,0.197-1.316c0-0.493-0.066-0.932-0.197-1.316c-0.132-0.384-0.313-0.706-0.544-0.968
				c-0.231-0.263-0.502-0.463-0.812-0.599c-0.31-0.137-0.638-0.206-0.985-0.206s-0.676,0.069-0.985,0.206
				c-0.31,0.136-0.581,0.336-0.812,0.599c-0.231,0.262-0.412,0.584-0.544,0.968c-0.132,0.384-0.197,0.823-0.197,1.316
				C172.031,73.092,172.097,73.53,172.228,73.913"/>
			<path clip-path="url(#SVGID_4_)" fill="#999999" d="M181.473,68.514v1.718h0.032c0.325-0.662,0.725-1.151,1.198-1.465
				c0.473-0.316,1.072-0.464,1.797-0.442v1.419c-0.536,0-0.993,0.073-1.371,0.221c-0.378,0.147-0.683,0.363-0.914,0.646
				c-0.231,0.284-0.4,0.628-0.504,1.032c-0.105,0.405-0.158,0.87-0.158,1.395v3.625h-1.34v-8.149H181.473z"/>
			<path clip-path="url(#SVGID_4_)" fill="#999999" d="M185.744,65.41h1.34v1.639h-1.34V65.41z M187.084,76.664h-1.34v-8.149h1.34
				V76.664z"/>
			<path clip-path="url(#SVGID_4_)" fill="#999999" d="M189.133,70.919c0.168-0.521,0.42-0.972,0.757-1.356
				c0.337-0.384,0.751-0.687,1.245-0.907c0.494-0.22,1.062-0.331,1.702-0.331c0.652,0,1.222,0.111,1.71,0.331
				c0.489,0.221,0.901,0.524,1.237,0.907c0.337,0.384,0.589,0.834,0.757,1.356c0.168,0.52,0.252,1.08,0.252,1.678
				c0,0.599-0.084,1.156-0.252,1.671c-0.168,0.516-0.42,0.965-0.757,1.349c-0.337,0.384-0.749,0.682-1.237,0.898
				c-0.489,0.215-1.058,0.323-1.71,0.323c-0.641,0-1.208-0.108-1.702-0.323c-0.494-0.216-0.909-0.515-1.245-0.898
				c-0.337-0.384-0.589-0.833-0.757-1.349c-0.168-0.515-0.252-1.072-0.252-1.671C188.881,71.999,188.965,71.439,189.133,70.919
				 M190.496,73.913c0.132,0.384,0.313,0.705,0.544,0.963c0.231,0.257,0.502,0.454,0.812,0.59c0.31,0.137,0.638,0.206,0.985,0.206
				s0.676-0.069,0.985-0.206c0.31-0.136,0.581-0.333,0.812-0.59c0.231-0.258,0.412-0.579,0.544-0.963
				c0.131-0.383,0.197-0.821,0.197-1.316c0-0.493-0.066-0.932-0.197-1.316c-0.132-0.384-0.313-0.706-0.544-0.968
				c-0.231-0.263-0.502-0.463-0.812-0.599c-0.31-0.137-0.638-0.206-0.985-0.206s-0.676,0.069-0.985,0.206
				c-0.31,0.136-0.581,0.336-0.812,0.599c-0.231,0.262-0.412,0.584-0.544,0.968c-0.132,0.384-0.197,0.823-0.197,1.316
				C190.299,73.092,190.365,73.53,190.496,73.913"/>
			<path clip-path="url(#SVGID_4_)" fill="#999999" d="M209.009,76.663V75.56h-0.032c-0.221,0.453-0.567,0.778-1.04,0.977
				c-0.473,0.2-0.993,0.301-1.56,0.301c-0.63,0-1.18-0.117-1.647-0.348c-0.467-0.231-0.857-0.54-1.166-0.93
				c-0.31-0.388-0.544-0.84-0.701-1.354c-0.158-0.516-0.236-1.063-0.236-1.639c0-0.579,0.077-1.125,0.229-1.639
				c0.152-0.515,0.383-0.965,0.694-1.349c0.31-0.383,0.698-0.688,1.166-0.914c0.467-0.225,1.011-0.339,1.631-0.339
				c0.211,0,0.436,0.023,0.678,0.064s0.483,0.111,0.725,0.212c0.242,0.1,0.471,0.231,0.686,0.395
				c0.215,0.162,0.396,0.365,0.544,0.606h0.032v-4.193h1.34v11.254H209.009z M204.194,73.771c0.099,0.363,0.252,0.686,0.457,0.969
				c0.205,0.284,0.467,0.51,0.788,0.678c0.321,0.168,0.696,0.252,1.127,0.252c0.451,0,0.835-0.089,1.151-0.268
				c0.315-0.178,0.573-0.412,0.772-0.701s0.345-0.617,0.433-0.985c0.089-0.367,0.134-0.741,0.134-1.119
				c0-0.399-0.047-0.785-0.142-1.157c-0.095-0.374-0.244-0.701-0.449-0.985s-0.471-0.512-0.796-0.687
				c-0.325-0.173-0.719-0.26-1.182-0.26c-0.451,0-0.835,0.09-1.151,0.268c-0.315,0.179-0.567,0.415-0.757,0.709
				c-0.189,0.295-0.325,0.632-0.41,1.01c-0.084,0.377-0.126,0.767-0.126,1.166C204.044,73.039,204.094,73.409,204.194,73.771"/>
			<path clip-path="url(#SVGID_4_)" fill="#999999" d="M212.651,65.41h1.34v1.639h-1.34V65.41z M213.989,76.664h-1.34v-8.149h1.34
				V76.664z"/>
			<rect x="220.846" y="65.41" clip-path="url(#SVGID_4_)" fill="#999999" width="1.34" height="11.254"/>
			<path clip-path="url(#SVGID_4_)" fill="#999999" d="M224.503,65.41h1.34v1.639h-1.34V65.41z M225.843,76.664h-1.34v-8.149h1.34
				V76.664z"/>
			<path clip-path="url(#SVGID_4_)" fill="#999999" d="M229.342,68.514v1.293h0.032c0.556-0.987,1.44-1.482,2.648-1.482
				c0.536,0,0.982,0.073,1.34,0.221c0.357,0.147,0.646,0.352,0.867,0.615c0.221,0.263,0.375,0.575,0.465,0.938
				c0.089,0.363,0.134,0.764,0.134,1.207v5.358h-1.34v-5.517c0-0.503-0.147-0.903-0.441-1.198c-0.295-0.294-0.699-0.441-1.214-0.441
				c-0.41,0-0.764,0.063-1.064,0.189s-0.549,0.305-0.749,0.536c-0.2,0.231-0.349,0.502-0.449,0.812c-0.1,0.31-0.15,0.649-0.15,1.017
				v4.603h-1.34v-8.149H229.342z"/>
			<path clip-path="url(#SVGID_4_)" fill="#999999" d="M243.118,78.965c-0.61,0.662-1.566,0.993-2.869,0.993
				c-0.378,0-0.764-0.042-1.159-0.126s-0.752-0.221-1.072-0.41c-0.321-0.189-0.585-0.437-0.796-0.741
				c-0.211-0.305-0.325-0.678-0.347-1.119h1.34c0.01,0.242,0.087,0.446,0.229,0.615c0.142,0.168,0.315,0.304,0.52,0.41
				c0.205,0.105,0.428,0.181,0.67,0.229c0.242,0.047,0.473,0.071,0.694,0.071c0.441,0,0.814-0.077,1.119-0.229
				c0.305-0.152,0.556-0.363,0.757-0.63c0.199-0.268,0.345-0.592,0.433-0.969c0.089-0.378,0.134-0.794,0.134-1.245v-0.537h-0.032
				c-0.232,0.506-0.581,0.876-1.048,1.112c-0.468,0.236-0.965,0.355-1.49,0.355c-0.609,0-1.141-0.11-1.592-0.331
				c-0.453-0.221-0.831-0.518-1.135-0.891c-0.305-0.373-0.534-0.808-0.686-1.308c-0.152-0.499-0.229-1.027-0.229-1.584
				c0-0.484,0.063-0.98,0.189-1.49c0.126-0.509,0.337-0.973,0.63-1.387c0.294-0.415,0.682-0.757,1.166-1.025
				c0.483-0.268,1.076-0.402,1.781-0.402c0.515,0,0.987,0.113,1.419,0.338c0.431,0.227,0.767,0.565,1.009,1.018h0.016v-1.166h1.261
				v7.456C244.032,77.304,243.727,78.303,243.118,78.965 M241.408,75.3c0.31-0.184,0.56-0.426,0.749-0.726
				c0.189-0.298,0.328-0.637,0.418-1.016c0.089-0.378,0.134-0.757,0.134-1.135c0-0.357-0.042-0.71-0.126-1.056
				c-0.084-0.347-0.218-0.66-0.402-0.938c-0.185-0.278-0.423-0.502-0.717-0.67c-0.294-0.168-0.652-0.253-1.072-0.253
				c-0.431,0-0.798,0.083-1.103,0.245c-0.305,0.163-0.555,0.381-0.749,0.654c-0.195,0.272-0.337,0.589-0.426,0.946
				c-0.089,0.358-0.134,0.731-0.134,1.119c0,0.367,0.036,0.736,0.11,1.103c0.073,0.368,0.199,0.701,0.378,1
				c0.178,0.301,0.414,0.543,0.709,0.726c0.294,0.184,0.662,0.276,1.103,0.276S241.098,75.484,241.408,75.3"/>
			<path clip-path="url(#SVGID_4_)" fill="#999999" d="M251.693,76.664V75.37h-0.032c-0.284,0.506-0.646,0.876-1.088,1.112
				c-0.441,0.236-0.962,0.355-1.56,0.355c-0.536,0-0.983-0.071-1.34-0.213c-0.358-0.142-0.646-0.345-0.867-0.607
				c-0.221-0.263-0.376-0.575-0.465-0.938c-0.089-0.363-0.134-0.764-0.134-1.206v-5.359h1.34v5.517c0,0.504,0.147,0.904,0.441,1.197
				c0.294,0.295,0.699,0.442,1.214,0.442c0.41,0,0.764-0.064,1.064-0.189c0.299-0.126,0.549-0.304,0.749-0.536
				c0.199-0.232,0.349-0.502,0.449-0.812c0.1-0.311,0.15-0.649,0.15-1.017v-4.603h1.34v8.149H251.693z"/>
			<path clip-path="url(#SVGID_4_)" fill="#999999" d="M261.386,76.837c-0.347,0-0.623-0.097-0.828-0.292
				c-0.205-0.194-0.307-0.511-0.307-0.954c-0.368,0.442-0.796,0.76-1.285,0.954c-0.489,0.195-1.017,0.292-1.584,0.292
				c-0.368,0-0.715-0.039-1.04-0.118c-0.327-0.079-0.612-0.211-0.859-0.394c-0.247-0.184-0.441-0.42-0.583-0.708
				c-0.142-0.289-0.213-0.64-0.213-1.049c0-0.462,0.079-0.84,0.236-1.135c0.158-0.294,0.365-0.534,0.623-0.717
				c0.257-0.184,0.552-0.323,0.883-0.418c0.331-0.095,0.67-0.173,1.017-0.236c0.368-0.073,0.717-0.128,1.048-0.166
				c0.331-0.036,0.623-0.089,0.875-0.158c0.252-0.068,0.451-0.168,0.599-0.299s0.221-0.323,0.221-0.575
				c0-0.294-0.055-0.53-0.165-0.709c-0.11-0.178-0.252-0.314-0.426-0.41c-0.173-0.095-0.368-0.158-0.583-0.189
				c-0.215-0.032-0.428-0.047-0.638-0.047c-0.567,0-1.04,0.108-1.419,0.323s-0.583,0.623-0.615,1.222h-1.34
				c0.021-0.504,0.126-0.929,0.315-1.277c0.189-0.347,0.441-0.628,0.757-0.843s0.678-0.37,1.088-0.465
				c0.41-0.095,0.841-0.142,1.293-0.142c0.368,0,0.733,0.026,1.095,0.079c0.363,0.053,0.69,0.161,0.985,0.323
				c0.294,0.163,0.53,0.392,0.709,0.686s0.268,0.678,0.268,1.151v4.193c0,0.315,0.018,0.546,0.055,0.694
				c0.036,0.147,0.16,0.221,0.37,0.221c0.115,0,0.252-0.026,0.41-0.079v1.04C262.116,76.768,261.796,76.837,261.386,76.837
				 M259.511,72.731c-0.274,0.059-0.56,0.106-0.859,0.142c-0.299,0.037-0.601,0.079-0.906,0.126s-0.579,0.124-0.82,0.229
				c-0.242,0.105-0.439,0.256-0.591,0.449c-0.153,0.195-0.229,0.46-0.229,0.796c0,0.221,0.045,0.408,0.134,0.56
				c0.089,0.153,0.205,0.276,0.347,0.37c0.142,0.095,0.31,0.163,0.504,0.205c0.194,0.043,0.392,0.063,0.591,0.063
				c0.441,0,0.82-0.06,1.135-0.181c0.315-0.12,0.573-0.272,0.772-0.457c0.199-0.184,0.347-0.384,0.441-0.599
				s0.142-0.417,0.142-0.606v-1.372C260.004,72.581,259.784,72.673,259.511,72.731"/>
			<path clip-path="url(#SVGID_4_)" fill="#999999" d="M269.867,78.965c-0.609,0.662-1.566,0.993-2.869,0.993
				c-0.378,0-0.764-0.042-1.159-0.126c-0.394-0.084-0.752-0.221-1.072-0.41c-0.321-0.189-0.585-0.437-0.796-0.741
				c-0.211-0.305-0.325-0.678-0.347-1.119h1.34c0.01,0.242,0.087,0.446,0.229,0.615c0.142,0.168,0.315,0.304,0.52,0.41
				c0.205,0.105,0.428,0.181,0.67,0.229c0.242,0.047,0.473,0.071,0.694,0.071c0.441,0,0.814-0.077,1.119-0.229
				s0.556-0.363,0.757-0.63c0.199-0.268,0.345-0.592,0.433-0.969c0.089-0.378,0.134-0.794,0.134-1.245v-0.537h-0.032
				c-0.231,0.506-0.581,0.876-1.048,1.112c-0.468,0.236-0.964,0.355-1.49,0.355c-0.609,0-1.141-0.11-1.592-0.331
				c-0.453-0.221-0.831-0.518-1.135-0.891c-0.305-0.373-0.534-0.808-0.686-1.308c-0.152-0.499-0.229-1.027-0.229-1.584
				c0-0.484,0.063-0.98,0.189-1.49c0.126-0.509,0.337-0.973,0.63-1.387c0.294-0.415,0.682-0.757,1.166-1.025
				c0.483-0.268,1.077-0.402,1.781-0.402c0.515,0,0.987,0.113,1.419,0.338c0.431,0.227,0.767,0.565,1.009,1.018h0.016v-1.166h1.261
				v7.456C270.781,77.304,270.476,78.303,269.867,78.965 M268.156,75.3c0.31-0.184,0.56-0.426,0.749-0.726
				c0.189-0.298,0.329-0.637,0.418-1.016c0.089-0.378,0.134-0.757,0.134-1.135c0-0.357-0.042-0.71-0.126-1.056
				c-0.084-0.347-0.218-0.66-0.402-0.938c-0.185-0.278-0.423-0.502-0.717-0.67c-0.294-0.168-0.652-0.253-1.072-0.253
				c-0.431,0-0.798,0.083-1.103,0.245c-0.305,0.163-0.554,0.381-0.749,0.654c-0.195,0.272-0.337,0.589-0.426,0.946
				c-0.089,0.358-0.134,0.731-0.134,1.119c0,0.367,0.036,0.736,0.11,1.103c0.073,0.368,0.199,0.701,0.378,1
				c0.178,0.301,0.414,0.543,0.709,0.726c0.294,0.184,0.662,0.276,1.103,0.276S267.847,75.484,268.156,75.3"/>
			<path clip-path="url(#SVGID_4_)" fill="#999999" d="M279.072,78.965c-0.61,0.662-1.566,0.993-2.869,0.993
				c-0.378,0-0.764-0.042-1.159-0.126c-0.394-0.084-0.752-0.221-1.072-0.41c-0.321-0.189-0.585-0.437-0.796-0.741
				c-0.211-0.305-0.325-0.678-0.347-1.119h1.34c0.01,0.242,0.087,0.446,0.229,0.615c0.142,0.168,0.315,0.304,0.52,0.41
				c0.205,0.105,0.428,0.181,0.67,0.229s0.473,0.071,0.694,0.071c0.441,0,0.814-0.077,1.119-0.229
				c0.305-0.152,0.556-0.363,0.757-0.63c0.199-0.268,0.345-0.592,0.433-0.969c0.089-0.378,0.134-0.794,0.134-1.245v-0.537h-0.032
				c-0.232,0.506-0.581,0.876-1.048,1.112c-0.468,0.236-0.965,0.355-1.49,0.355c-0.609,0-1.141-0.11-1.592-0.331
				c-0.453-0.221-0.831-0.518-1.135-0.891c-0.305-0.373-0.534-0.808-0.686-1.308c-0.152-0.499-0.229-1.027-0.229-1.584
				c0-0.484,0.063-0.98,0.189-1.49c0.126-0.509,0.337-0.973,0.63-1.387c0.294-0.415,0.682-0.757,1.166-1.025
				c0.483-0.268,1.076-0.402,1.781-0.402c0.515,0,0.987,0.113,1.419,0.338c0.431,0.227,0.767,0.565,1.009,1.018h0.016v-1.166h1.261
				v7.456C279.986,77.304,279.681,78.303,279.072,78.965 M277.361,75.3c0.31-0.184,0.56-0.426,0.749-0.726
				c0.189-0.298,0.328-0.637,0.418-1.016c0.089-0.378,0.134-0.757,0.134-1.135c0-0.357-0.042-0.71-0.126-1.056
				c-0.084-0.347-0.218-0.66-0.402-0.938c-0.185-0.278-0.423-0.502-0.717-0.67c-0.294-0.168-0.652-0.253-1.072-0.253
				c-0.431,0-0.798,0.083-1.103,0.245c-0.305,0.163-0.555,0.381-0.749,0.654c-0.195,0.272-0.337,0.589-0.426,0.946
				c-0.089,0.358-0.134,0.731-0.134,1.119c0,0.367,0.036,0.736,0.11,1.103c0.073,0.368,0.199,0.701,0.378,1
				c0.178,0.301,0.414,0.543,0.709,0.726c0.294,0.184,0.662,0.276,1.103,0.276C276.676,75.576,277.052,75.484,277.361,75.3"/>
			<path clip-path="url(#SVGID_4_)" fill="#999999" d="M282.239,65.41h1.34v1.639h-1.34V65.41z M283.579,76.664h-1.34v-8.149h1.34
				V76.664z"/>
			<path clip-path="url(#SVGID_4_)" fill-rule="evenodd" clip-rule="evenodd" fill="#FFFFFF" d="M92.258,49.141
				c0.405,0.081,0.811,0.081,1.216,0.081c5.189,0,9.403-4.215,9.403-9.403s-4.214-9.403-9.403-9.403c-2.27,0-4.54,0.892-6.242,2.351
				c-0.244,0.243-0.324,0.404-0.567,0.404c-0.243-0.08-0.485-0.161-0.649-0.404c-3.324-3.243-7.945-5.269-12.889-5.269
				c-10.133,0-18.401,8.268-18.401,18.401c0,7.538,4.54,14.267,11.511,17.104c-0.811,0.973-1.298,2.189-1.298,3.486
				c0,2.918,2.351,5.269,5.27,5.269c2.838,0,5.188-2.351,5.188-5.269c0-0.811-0.162-1.54-0.486-2.27
				c7.944-0.811,14.51-6.647,16.212-14.429c0-0.161,0.163-0.405,0.325-0.567C91.69,49.06,92.015,49.141,92.258,49.141"/>
			<path clip-path="url(#SVGID_4_)" fill-rule="evenodd" clip-rule="evenodd" fill="#FFFFFF" d="M49.943,26.443
				c5.107,0,9.322-4.215,9.322-9.403s-4.215-9.403-9.322-9.403c-5.188,0-9.404,4.215-9.404,9.403S44.755,26.443,49.943,26.443"/>
			<path clip-path="url(#SVGID_4_)" fill-rule="evenodd" clip-rule="evenodd" fill="#FFFFFF" d="M92.293,49.141
				c0.405,0.081,0.811,0.081,1.216,0.081c5.189,0,9.403-4.215,9.403-9.403s-4.214-9.403-9.403-9.403c-2.27,0-4.54,0.892-6.242,2.351
				c-0.244,0.243-0.324,0.405-0.567,0.405c-0.244-0.081-0.485-0.162-0.649-0.405c-3.324-3.243-7.945-5.269-12.889-5.269
				c-10.133,0-18.401,8.268-18.401,18.401c0,7.539,4.54,14.267,11.511,17.104c-0.811,0.973-1.298,2.189-1.298,3.486
				c0,2.918,2.351,5.269,5.27,5.269c2.838,0,5.188-2.351,5.188-5.269c0-0.81-0.162-1.54-0.486-2.27
				c7.943-0.811,14.51-6.647,16.212-14.429c0-0.161,0.163-0.405,0.325-0.567C91.726,49.06,92.05,49.141,92.293,49.141"/>
			<path clip-path="url(#SVGID_4_)" fill-rule="evenodd" clip-rule="evenodd" fill="#FFFFFF" d="M49.978,26.443
				c5.107,0,9.322-4.215,9.322-9.403s-4.215-9.403-9.322-9.403c-5.188,0-9.403,4.215-9.403,9.403S44.79,26.443,49.978,26.443"/>
			<path clip-path="url(#SVGID_4_)" fill-rule="evenodd" clip-rule="evenodd" fill="#00AFEE" d="M78.423,1.053h24.238
				c3.486,0,6.404,2.837,6.404,6.404v62.662c0,3.486-2.918,6.404-6.404,6.404H78.423V63.39c5.999-2.027,10.7-7.053,12.241-13.294
				c0.081-0.324,0.163-0.567,0.405-0.73c0.162-0.162,0.486-0.324,0.811-0.243c0.405,0,0.811,0.081,1.216,0.081
				c5.189,0,9.403-4.215,9.403-9.403s-4.214-9.403-9.403-9.403c-2.269,0-4.376,0.73-6.08,2.189
				c-0.243,0.162-0.486,0.324-0.811,0.324c-0.243,0-0.486-0.162-0.728-0.324c-2.028-1.946-4.379-3.405-7.054-4.215V1.053z
				 M49.483,1.053h28.94v27.318c-1.783-0.567-3.729-0.892-5.674-0.892c-10.133,0-18.401,8.268-18.401,18.401
				c0,7.539,4.54,14.267,11.511,17.104c-0.811,0.973-1.297,2.189-1.297,3.486c0,2.918,2.351,5.269,5.269,5.269
				c2.838,0,5.189-2.351,5.189-5.269c0-0.811-0.163-1.54-0.488-2.27c1.297-0.162,2.595-0.405,3.891-0.811v13.132h-28.94V26.425
				h0.081c5.107,0,9.322-4.215,9.322-9.403s-4.215-9.403-9.322-9.403h-0.081V1.053z M39.999,1.053h9.484v6.566
				c-5.188,0-9.321,4.215-9.321,9.403s4.133,9.322,9.321,9.403v50.097h-9.484c-3.567,0-6.403-2.918-6.403-6.404V7.457
				C33.596,3.89,36.432,1.053,39.999,1.053"/>
		</g>
	</g>
</g>
</svg>
